<svg width="254" height="24" viewBox="0 0 254 24" fill="none" xmlns="http://www.w3.org/2000/svg">
<path d="M19.832 21.28C19.816 21.536 19.712 21.744 19.52 21.904C19.328 22.064 19.104 22.144 18.848 22.144C18.56 22.144 18.32 22.048 18.128 21.856C17.936 21.664 17.84 21.368 17.84 20.968C17.84 19.928 17.888 18.8 17.984 17.584C18.08 16.352 18.2 15.136 18.344 13.936C18.488 12.72 18.632 11.6 18.776 10.576C18.248 11.328 17.672 12.16 17.048 13.072C16.44 13.984 15.816 14.888 15.176 15.784C14.536 16.68 13.912 17.504 13.304 18.256C12.696 18.992 12.144 19.592 11.648 20.056C11.152 20.504 10.744 20.728 10.424 20.728C9.832 20.728 9.32 20.496 8.888 20.032C8.456 19.552 8.24 18.952 8.24 18.232C8.24 17.944 8.272 17.552 8.336 17.056C8.4 16.544 8.472 16.008 8.552 15.448C8.632 14.888 8.704 14.368 8.768 13.888C8.832 13.392 8.864 13.024 8.864 12.784C8.864 12.56 8.84 12.368 8.792 12.208C8.76 12.032 8.68 11.944 8.552 11.944C8.36 11.944 8.096 12.16 7.76 12.592C7.424 13.008 7.048 13.544 6.632 14.2C6.232 14.856 5.816 15.552 5.384 16.288C4.968 17.024 4.576 17.72 4.208 18.376C3.84 19.016 3.528 19.52 3.272 19.888C3.064 20.24 2.872 20.496 2.696 20.656C2.52 20.816 2.304 20.896 2.048 20.896C1.744 20.896 1.464 20.736 1.208 20.416C0.968 20.096 0.848 19.704 0.848 19.24C0.848 18.968 0.896 18.544 0.992 17.968C1.088 17.376 1.208 16.728 1.352 16.024C1.512 15.32 1.664 14.632 1.808 13.96C1.968 13.272 2.104 12.688 2.216 12.208C2.344 11.664 2.504 11.296 2.696 11.104C2.888 10.912 3.096 10.816 3.32 10.816C3.624 10.816 3.864 10.928 4.04 11.152C4.232 11.36 4.328 11.688 4.328 12.136C4.328 12.216 4.28 12.432 4.184 12.784C4.088 13.12 3.968 13.536 3.824 14.032C3.696 14.512 3.552 15.016 3.392 15.544C3.248 16.072 3.128 16.56 3.032 17.008C3.384 16.416 3.752 15.776 4.136 15.088C4.536 14.4 4.936 13.72 5.336 13.048C5.736 12.36 6.136 11.736 6.536 11.176C6.936 10.6 7.328 10.144 7.712 9.808C8.096 9.472 8.464 9.304 8.816 9.304C9.232 9.304 9.616 9.432 9.968 9.688C10.336 9.944 10.632 10.288 10.856 10.72C11.08 11.152 11.192 11.632 11.192 12.16C11.192 12.528 11.128 13.048 11 13.72C10.872 14.376 10.736 15.088 10.592 15.856C10.464 16.624 10.384 17.352 10.352 18.04C10.352 18.2 10.4 18.28 10.496 18.28C10.576 18.28 10.672 18.224 10.784 18.112C11.248 17.6 11.76 16.984 12.32 16.264C12.88 15.528 13.448 14.752 14.024 13.936C14.616 13.12 15.2 12.32 15.776 11.536C16.352 10.736 16.888 10.016 17.384 9.376C17.896 8.72 18.344 8.2 18.728 7.816C19.128 7.432 19.44 7.24 19.664 7.24C20.144 7.24 20.512 7.376 20.768 7.648C21.024 7.92 21.152 8.376 21.152 9.016C21.152 9.528 21.112 10.192 21.032 11.008C20.968 11.824 20.88 12.712 20.768 13.672C20.672 14.632 20.56 15.6 20.432 16.576C20.32 17.536 20.208 18.432 20.096 19.264C19.984 20.08 19.896 20.752 19.832 21.28ZM25.4229 22.12C25.1189 22.12 24.8469 22.008 24.6069 21.784C24.3669 21.544 24.2469 21.176 24.2469 20.68C24.2469 20.328 24.2949 19.84 24.3909 19.216C24.4869 18.576 24.6149 17.88 24.7749 17.128C24.9349 16.376 25.1029 15.632 25.2789 14.896C25.4709 14.144 25.6629 13.472 25.8549 12.88C26.0469 12.288 26.2149 11.848 26.3589 11.56C26.4869 11.336 26.6069 11.192 26.7189 11.128C26.8469 11.064 26.9669 11.032 27.0789 11.032C27.3029 11.032 27.4949 11.104 27.6549 11.248C27.8309 11.392 27.9189 11.672 27.9189 12.088C27.9189 12.328 27.8709 12.728 27.7749 13.288C27.6949 13.832 27.5829 14.472 27.4389 15.208C27.3109 15.928 27.1669 16.672 27.0069 17.44C26.8629 18.192 26.7189 18.912 26.5749 19.6C26.4309 20.288 26.3189 20.864 26.2389 21.328C26.1749 21.584 26.0629 21.784 25.9029 21.928C25.7589 22.056 25.5989 22.12 25.4229 22.12ZM27.7749 8.848C27.4069 8.848 27.0549 8.736 26.7189 8.512C26.3989 8.288 26.2389 7.928 26.2389 7.432C26.2389 7.016 26.3349 6.68 26.5269 6.424C26.7349 6.168 26.9749 5.984 27.2469 5.872C27.5349 5.744 27.7829 5.68 27.9909 5.68C28.1989 5.68 28.4309 5.728 28.6869 5.824C28.9589 5.904 29.1909 6.064 29.3829 6.304C29.5749 6.528 29.6709 6.864 29.6709 7.312C29.6709 7.616 29.5669 7.888 29.3589 8.128C29.1509 8.352 28.8949 8.528 28.5909 8.656C28.3029 8.784 28.0309 8.848 27.7749 8.848ZM35.0324 22.336C34.2484 22.336 33.5684 22.16 32.9924 21.808C32.4324 21.44 32.0004 20.968 31.6964 20.392C31.3924 19.816 31.2404 19.224 31.2404 18.616C31.2404 17.336 31.4644 16.168 31.9124 15.112C32.3604 14.04 32.9204 13.096 33.5924 12.28C34.2804 11.448 34.9844 10.744 35.7044 10.168C36.4404 9.592 37.1044 9.16 37.6964 8.872C38.3044 8.568 38.7364 8.416 38.9924 8.416C39.5044 8.416 39.7604 8.672 39.7604 9.184C39.7604 9.424 39.6004 9.704 39.2804 10.024C38.9604 10.328 38.5524 10.688 38.0564 11.104C37.5604 11.52 37.0324 11.992 36.4724 12.52C35.9124 13.032 35.3844 13.616 34.8884 14.272C34.3924 14.912 33.9844 15.632 33.6644 16.432C33.3444 17.216 33.1844 18.08 33.1844 19.024C33.1844 19.984 33.5764 20.464 34.3604 20.464C35.0804 20.464 35.8164 20.328 36.5684 20.056C37.3364 19.784 38.0884 19.432 38.8244 19C39.5764 18.552 40.2964 18.088 40.9844 17.608C41.6724 17.128 42.2964 16.672 42.8564 16.24C43.4164 15.792 43.8884 15.432 44.2724 15.16C44.6564 14.888 44.9284 14.752 45.0884 14.752C45.4084 14.752 45.5684 14.928 45.5684 15.28C45.5684 15.552 45.3844 15.912 45.0164 16.36C44.6484 16.808 44.1524 17.296 43.5284 17.824C42.9044 18.352 42.2084 18.888 41.4404 19.432C40.6724 19.96 39.8964 20.448 39.1124 20.896C38.3284 21.328 37.5764 21.68 36.8564 21.952C36.1524 22.208 35.5444 22.336 35.0324 22.336ZM45.4603 23.08C45.1083 23.08 44.8363 22.976 44.6443 22.768C44.4523 22.576 44.3563 22.088 44.3563 21.304C44.3563 20.584 44.4843 19.648 44.7402 18.496C44.9963 17.328 45.3403 16.032 45.7723 14.608C46.2043 13.184 46.6923 11.712 47.2363 10.192C47.7803 8.656 48.3483 7.152 48.9403 5.68C49.5483 4.192 50.1323 2.832 50.6923 1.6C50.9003 1.152 51.1163 0.839999 51.3403 0.663999C51.5643 0.487999 51.8283 0.399999 52.1323 0.399999C52.3403 0.399999 52.5163 0.463999 52.6603 0.592C52.8203 0.703999 52.9003 0.895999 52.9003 1.168C52.9003 1.264 52.7963 1.576 52.5883 2.104C52.3963 2.632 52.1243 3.328 51.7723 4.192C51.4363 5.056 51.0603 6.024 50.6443 7.096C50.2283 8.168 49.8043 9.296 49.3723 10.48C48.9403 11.664 48.5323 12.856 48.1483 14.056C47.7643 15.24 47.4363 16.376 47.1643 17.464C46.8923 18.552 46.7083 19.528 46.6123 20.392C46.9963 19.928 47.4363 19.336 47.9323 18.616C48.4283 17.896 48.9563 17.12 49.5163 16.288C50.0763 15.456 50.6443 14.632 51.2203 13.816C51.7963 13 52.3643 12.256 52.9243 11.584C53.4843 10.912 54.0043 10.376 54.4843 9.976C54.9803 9.56 55.4123 9.352 55.7803 9.352C56.3883 9.352 56.8763 9.544 57.2443 9.928C57.6283 10.296 57.8203 10.904 57.8203 11.752C57.8203 12.232 57.7243 12.808 57.5323 13.48C57.3563 14.152 57.1483 14.856 56.9083 15.592C56.6683 16.328 56.4523 17.032 56.2603 17.704C56.0843 18.376 55.9963 18.952 55.9963 19.432C55.9963 20.088 56.2443 20.416 56.7403 20.416C57.5083 20.416 58.2763 20.248 59.0443 19.912C59.8283 19.576 60.5723 19.16 61.2763 18.664C61.9803 18.152 62.6283 17.64 63.2203 17.128C63.8123 16.6 64.3163 16.152 64.7323 15.784C65.1803 15.384 65.5563 15.184 65.8603 15.184C66.2443 15.184 66.4363 15.384 66.4363 15.784C66.4363 15.896 66.4123 16.024 66.3643 16.168C66.3163 16.312 66.1883 16.496 65.9803 16.72C65.7243 17.008 65.3563 17.384 64.8763 17.848C64.4123 18.312 63.8683 18.808 63.2443 19.336C62.6363 19.864 61.9723 20.36 61.2523 20.824C60.5483 21.288 59.8203 21.672 59.0683 21.976C58.3323 22.264 57.6123 22.408 56.9083 22.408C55.9483 22.408 55.2043 22.136 54.6763 21.592C54.1643 21.032 53.9083 20.264 53.9083 19.288C53.9083 18.68 54.0043 17.944 54.1963 17.08C54.3883 16.216 54.6283 15.304 54.9163 14.344C55.2203 13.368 55.5243 12.416 55.8282 11.488C55.3163 11.84 54.7563 12.368 54.1483 13.072C53.5563 13.76 52.9323 14.544 52.2763 15.424C51.6203 16.288 50.9643 17.168 50.3083 18.064C49.6683 18.96 49.0443 19.792 48.4363 20.56C47.8443 21.312 47.2923 21.92 46.7803 22.384C46.2683 22.848 45.8283 23.08 45.4603 23.08ZM74.303 11.656C74.303 12.168 74.143 12.672 73.823 13.168C73.503 13.648 73.079 14.112 72.551 14.56C72.023 14.992 71.439 15.4 70.799 15.784C70.159 16.168 69.519 16.504 68.879 16.792C68.239 17.08 67.655 17.312 67.127 17.488C66.999 18.112 66.935 18.664 66.935 19.144C66.935 19.448 67.007 19.664 67.151 19.792C67.295 19.92 67.519 19.984 67.823 19.984C68.495 19.984 69.207 19.864 69.959 19.624C70.711 19.384 71.479 19.072 72.263 18.688C73.047 18.304 73.799 17.896 74.519 17.464C75.239 17.032 75.895 16.624 76.487 16.24C77.095 15.856 77.599 15.544 77.999 15.304C78.399 15.064 78.663 14.944 78.791 14.944C78.983 14.944 79.127 15.008 79.223 15.136C79.335 15.248 79.391 15.384 79.391 15.544C79.391 15.672 79.191 15.92 78.791 16.288C78.407 16.656 77.887 17.088 77.231 17.584C76.575 18.064 75.839 18.56 75.023 19.072C74.207 19.584 73.359 20.064 72.479 20.512C71.615 20.96 70.775 21.32 69.959 21.592C69.159 21.864 68.439 22 67.799 22C66.967 22 66.319 21.688 65.855 21.064C65.391 20.44 65.159 19.472 65.159 18.16C65.159 17.28 65.271 16.392 65.495 15.496C65.735 14.6 66.055 13.744 66.455 12.928C66.871 12.096 67.327 11.36 67.823 10.72C68.335 10.064 68.871 9.552 69.431 9.184C69.991 8.8 70.535 8.608 71.063 8.608C72.071 8.608 72.863 8.888 73.439 9.448C74.015 10.008 74.303 10.744 74.303 11.656ZM67.631 15.64C68.127 15.336 68.639 15.016 69.167 14.68C69.695 14.344 70.183 14 70.631 13.648C71.079 13.296 71.439 12.928 71.711 12.544C71.999 12.144 72.143 11.736 72.143 11.32C72.143 10.728 71.823 10.432 71.183 10.432C70.783 10.432 70.359 10.688 69.911 11.2C69.479 11.696 69.063 12.344 68.663 13.144C68.263 13.944 67.919 14.776 67.631 15.64ZM82.2071 22.96C80.9751 22.96 80.0071 22.56 79.3031 21.76C78.6151 20.944 78.2711 19.808 78.2711 18.352C78.2711 17.456 78.3911 16.408 78.6311 15.208C78.8871 13.992 79.2071 12.712 79.5911 11.368C79.9911 10.008 80.4231 8.664 80.8871 7.336C81.3511 6.008 81.7991 4.776 82.2311 3.64C82.6791 2.488 83.0711 1.528 83.4071 0.759999C83.5991 0.327999 83.8711 0.111999 84.2231 0.111999C84.7031 0.111999 84.9431 0.407999 84.9431 0.999999C84.9431 1.192 84.8551 1.584 84.6791 2.176C84.5031 2.768 84.2711 3.504 83.9831 4.384C83.6951 5.248 83.3831 6.208 83.0471 7.264C82.7111 8.32 82.3671 9.408 82.0151 10.528C81.6791 11.632 81.3671 12.728 81.0791 13.816C80.7911 14.888 80.5591 15.896 80.3831 16.84C80.2071 17.784 80.1191 18.592 80.1191 19.264C80.1191 19.696 80.2311 20.04 80.4551 20.296C80.6951 20.536 81.0151 20.656 81.4151 20.656C82.1511 20.656 82.8871 20.512 83.6231 20.224C84.3751 19.92 85.0951 19.552 85.7831 19.12C86.4711 18.672 87.0951 18.232 87.6551 17.8C88.2311 17.352 88.7191 16.984 89.1191 16.696C89.5191 16.392 89.7991 16.24 89.9591 16.24C90.3111 16.24 90.4871 16.432 90.4871 16.816C90.4871 16.944 90.3591 17.184 90.1031 17.536C89.8471 17.872 89.5031 18.272 89.0711 18.736C88.6391 19.2 88.1351 19.68 87.5591 20.176C86.9991 20.656 86.4071 21.112 85.7831 21.544C85.1751 21.96 84.5591 22.296 83.9351 22.552C83.3271 22.824 82.7511 22.96 82.2071 22.96ZM93.3164 22.96C92.0844 22.96 91.1164 22.56 90.4124 21.76C89.7244 20.944 89.3804 19.808 89.3804 18.352C89.3804 17.456 89.5004 16.408 89.7404 15.208C89.9964 13.992 90.3164 12.712 90.7004 11.368C91.1004 10.008 91.5324 8.664 91.9964 7.336C92.4604 6.008 92.9084 4.776 93.3404 3.64C93.7884 2.488 94.1804 1.528 94.5164 0.759999C94.7084 0.327999 94.9804 0.111999 95.3324 0.111999C95.8124 0.111999 96.0524 0.407999 96.0524 0.999999C96.0524 1.192 95.9644 1.584 95.7884 2.176C95.6124 2.768 95.3804 3.504 95.0924 4.384C94.8044 5.248 94.4924 6.208 94.1564 7.264C93.8204 8.32 93.4764 9.408 93.1244 10.528C92.7884 11.632 92.4764 12.728 92.1884 13.816C91.9004 14.888 91.6684 15.896 91.4924 16.84C91.3164 17.784 91.2284 18.592 91.2284 19.264C91.2284 19.696 91.3404 20.04 91.5644 20.296C91.8044 20.536 92.1244 20.656 92.5244 20.656C93.2604 20.656 93.9964 20.512 94.7324 20.224C95.4844 19.92 96.2044 19.552 96.8924 19.12C97.5804 18.672 98.2044 18.232 98.7644 17.8C99.3404 17.352 99.8284 16.984 100.228 16.696C100.628 16.392 100.908 16.24 101.068 16.24C101.42 16.24 101.596 16.432 101.596 16.816C101.596 16.944 101.468 17.184 101.212 17.536C100.956 17.872 100.612 18.272 100.18 18.736C99.7484 19.2 99.2444 19.68 98.6684 20.176C98.1084 20.656 97.5164 21.112 96.8924 21.544C96.2844 21.96 95.6684 22.296 95.0444 22.552C94.4364 22.824 93.8604 22.96 93.3164 22.96ZM110.069 11.656C110.069 12.168 109.909 12.672 109.589 13.168C109.269 13.648 108.845 14.112 108.317 14.56C107.789 14.992 107.205 15.4 106.565 15.784C105.925 16.168 105.285 16.504 104.645 16.792C104.005 17.08 103.421 17.312 102.893 17.488C102.765 18.112 102.701 18.664 102.701 19.144C102.701 19.448 102.773 19.664 102.917 19.792C103.061 19.92 103.285 19.984 103.589 19.984C104.261 19.984 104.973 19.864 105.725 19.624C106.477 19.384 107.245 19.072 108.029 18.688C108.813 18.304 109.565 17.896 110.285 17.464C111.005 17.032 111.661 16.624 112.253 16.24C112.861 15.856 113.365 15.544 113.765 15.304C114.165 15.064 114.429 14.944 114.557 14.944C114.749 14.944 114.893 15.008 114.989 15.136C115.101 15.248 115.157 15.384 115.157 15.544C115.157 15.672 114.957 15.92 114.557 16.288C114.173 16.656 113.653 17.088 112.997 17.584C112.341 18.064 111.605 18.56 110.789 19.072C109.973 19.584 109.125 20.064 108.245 20.512C107.381 20.96 106.541 21.32 105.725 21.592C104.925 21.864 104.205 22 103.565 22C102.733 22 102.085 21.688 101.621 21.064C101.157 20.44 100.925 19.472 100.925 18.16C100.925 17.28 101.037 16.392 101.261 15.496C101.501 14.6 101.821 13.744 102.221 12.928C102.637 12.096 103.093 11.36 103.589 10.72C104.101 10.064 104.637 9.552 105.197 9.184C105.757 8.8 106.301 8.608 106.829 8.608C107.837 8.608 108.629 8.888 109.205 9.448C109.781 10.008 110.069 10.744 110.069 11.656ZM103.397 15.64C103.893 15.336 104.405 15.016 104.933 14.68C105.461 14.344 105.949 14 106.397 13.648C106.845 13.296 107.205 12.928 107.477 12.544C107.765 12.144 107.909 11.736 107.909 11.32C107.909 10.728 107.589 10.432 106.949 10.432C106.549 10.432 106.125 10.688 105.677 11.2C105.245 11.696 104.829 12.344 104.429 13.144C104.029 13.944 103.685 14.776 103.397 15.64ZM127.121 22.024C126.433 22.024 125.945 21.888 125.657 21.616C125.369 21.344 125.225 20.944 125.225 20.416C125.225 17.76 125.705 14.984 126.665 12.088C127.625 9.176 128.969 6.256 130.697 3.328C130.921 2.96 131.097 2.728 131.225 2.632C131.369 2.536 131.537 2.488 131.729 2.488C131.953 2.488 132.153 2.568 132.329 2.728C132.505 2.888 132.593 3.104 132.593 3.376C132.593 3.52 132.449 3.912 132.161 4.552C131.873 5.176 131.505 5.984 131.057 6.976C130.609 7.968 130.129 9.08 129.617 10.312C129.121 11.528 128.649 12.8 128.201 14.128C127.753 15.456 127.393 16.776 127.121 18.088C127.489 17.544 127.929 16.96 128.441 16.336C128.969 15.712 129.529 15.088 130.121 14.464C130.713 13.84 131.313 13.272 131.921 12.76C132.545 12.248 133.145 11.84 133.721 11.536C134.297 11.232 134.825 11.08 135.305 11.08C135.929 11.08 136.473 11.344 136.937 11.872C137.417 12.384 137.657 13.16 137.657 14.2C137.657 15.08 137.417 15.984 136.937 16.912C136.457 17.824 135.753 18.672 134.825 19.456C133.913 20.224 132.809 20.848 131.513 21.328C130.217 21.792 128.753 22.024 127.121 22.024ZM127.217 20.2C128.545 20.2 129.753 19.976 130.841 19.528C131.929 19.08 132.857 18.512 133.625 17.824C134.409 17.12 135.009 16.392 135.425 15.64C135.857 14.872 136.073 14.176 136.073 13.552C136.073 13.104 135.921 12.88 135.617 12.88C135.249 12.88 134.777 13.056 134.201 13.408C133.625 13.76 133.001 14.224 132.329 14.8C131.673 15.376 131.017 16 130.361 16.672C129.705 17.328 129.097 17.968 128.537 18.592C127.993 19.216 127.553 19.752 127.217 20.2ZM141.087 22.624C140.479 22.624 139.975 22.344 139.575 21.784C139.191 21.208 138.999 20.464 138.999 19.552C138.999 18.704 139.207 17.864 139.623 17.032C140.055 16.2 140.623 15.4 141.327 14.632C142.031 13.864 142.799 13.16 143.631 12.52C144.463 11.864 145.295 11.296 146.127 10.816C146.975 10.336 147.751 9.96 148.455 9.688C149.159 9.416 149.719 9.28 150.135 9.28C150.359 9.28 150.543 9.328 150.687 9.424C150.831 9.504 150.903 9.656 150.903 9.88C150.903 10.024 150.847 10.16 150.735 10.288C150.751 10.288 150.767 10.288 150.783 10.288C151.135 10.288 151.311 10.496 151.311 10.912C151.311 11.056 151.255 11.352 151.143 11.8C151.031 12.232 150.903 12.776 150.759 13.432C150.615 14.088 150.487 14.816 150.375 15.616C150.263 16.4 150.207 17.2 150.207 18.016C150.207 18.704 150.471 19.048 150.999 19.048C151.591 19.048 152.191 18.912 152.799 18.64C153.407 18.368 153.999 18.04 154.575 17.656C155.151 17.256 155.679 16.864 156.159 16.48C156.639 16.08 157.047 15.744 157.383 15.472C157.719 15.2 157.959 15.064 158.103 15.064C158.231 15.064 158.343 15.104 158.439 15.184C158.535 15.264 158.583 15.392 158.583 15.568C158.583 15.728 158.423 16.016 158.103 16.432C157.783 16.848 157.359 17.32 156.831 17.848C156.303 18.376 155.711 18.888 155.055 19.384C154.399 19.88 153.727 20.288 153.039 20.608C152.351 20.928 151.695 21.088 151.071 21.088C150.591 21.088 150.151 20.944 149.751 20.656C149.367 20.352 149.055 19.84 148.815 19.12C148.591 18.4 148.479 17.408 148.479 16.144V15.544C147.695 16.84 146.871 18.024 146.007 19.096C145.159 20.168 144.311 21.024 143.463 21.664C142.631 22.304 141.839 22.624 141.087 22.624ZM149.679 11.008C149.599 11.04 149.487 11.088 149.343 11.152C148.607 11.488 147.839 11.904 147.039 12.4C146.255 12.896 145.487 13.448 144.735 14.056C143.999 14.664 143.335 15.296 142.743 15.952C142.151 16.608 141.679 17.272 141.327 17.944C140.975 18.616 140.799 19.272 140.799 19.912C140.799 20.12 140.839 20.28 140.919 20.392C141.015 20.504 141.175 20.56 141.399 20.56C141.719 20.56 142.135 20.36 142.647 19.96C143.159 19.544 143.719 19 144.327 18.328C144.951 17.656 145.575 16.912 146.199 16.096C146.823 15.28 147.415 14.456 147.975 13.624C148.551 12.792 149.047 12.024 149.463 11.32C149.527 11.208 149.599 11.104 149.679 11.008ZM157.938 22.624C157.33 22.624 156.826 22.344 156.426 21.784C156.042 21.208 155.85 20.464 155.85 19.552C155.85 18.704 156.058 17.864 156.474 17.032C156.906 16.2 157.474 15.4 158.178 14.632C158.882 13.864 159.65 13.16 160.482 12.52C161.314 11.864 162.146 11.296 162.978 10.816C163.826 10.336 164.602 9.96 165.306 9.688C166.01 9.416 166.57 9.28 166.986 9.28C167.21 9.28 167.394 9.328 167.538 9.424C167.682 9.504 167.754 9.656 167.754 9.88C167.754 10.024 167.698 10.16 167.586 10.288C167.602 10.288 167.618 10.288 167.634 10.288C167.986 10.288 168.162 10.496 168.162 10.912C168.162 11.056 168.106 11.352 167.994 11.8C167.882 12.232 167.754 12.776 167.61 13.432C167.466 14.088 167.338 14.816 167.226 15.616C167.114 16.4 167.058 17.2 167.058 18.016C167.058 18.704 167.322 19.048 167.85 19.048C168.442 19.048 169.042 18.912 169.65 18.64C170.258 18.368 170.85 18.04 171.426 17.656C172.002 17.256 172.53 16.864 173.01 16.48C173.49 16.08 173.898 15.744 174.234 15.472C174.57 15.2 174.81 15.064 174.954 15.064C175.082 15.064 175.194 15.104 175.29 15.184C175.386 15.264 175.434 15.392 175.434 15.568C175.434 15.728 175.274 16.016 174.954 16.432C174.634 16.848 174.21 17.32 173.682 17.848C173.154 18.376 172.562 18.888 171.906 19.384C171.25 19.88 170.578 20.288 169.89 20.608C169.202 20.928 168.546 21.088 167.922 21.088C167.442 21.088 167.002 20.944 166.602 20.656C166.218 20.352 165.906 19.84 165.666 19.12C165.442 18.4 165.33 17.408 165.33 16.144V15.544C164.546 16.84 163.722 18.024 162.858 19.096C162.01 20.168 161.162 21.024 160.314 21.664C159.482 22.304 158.69 22.624 157.938 22.624ZM166.53 11.008C166.45 11.04 166.338 11.088 166.194 11.152C165.458 11.488 164.69 11.904 163.89 12.4C163.106 12.896 162.338 13.448 161.586 14.056C160.85 14.664 160.186 15.296 159.594 15.952C159.002 16.608 158.53 17.272 158.178 17.944C157.826 18.616 157.65 19.272 157.65 19.912C157.65 20.12 157.69 20.28 157.77 20.392C157.866 20.504 158.026 20.56 158.25 20.56C158.57 20.56 158.986 20.36 159.498 19.96C160.01 19.544 160.57 19 161.178 18.328C161.802 17.656 162.426 16.912 163.05 16.096C163.674 15.28 164.266 14.456 164.826 13.624C165.402 12.792 165.898 12.024 166.314 11.32C166.378 11.208 166.45 11.104 166.53 11.008ZM192.613 21.28C192.597 21.536 192.493 21.744 192.301 21.904C192.109 22.064 191.885 22.144 191.629 22.144C191.341 22.144 191.101 22.048 190.909 21.856C190.717 21.664 190.621 21.368 190.621 20.968C190.621 19.928 190.669 18.8 190.765 17.584C190.861 16.352 190.981 15.136 191.125 13.936C191.269 12.72 191.413 11.6 191.557 10.576C191.029 11.328 190.453 12.16 189.829 13.072C189.221 13.984 188.597 14.888 187.957 15.784C187.317 16.68 186.693 17.504 186.085 18.256C185.477 18.992 184.925 19.592 184.429 20.056C183.933 20.504 183.525 20.728 183.205 20.728C182.613 20.728 182.101 20.496 181.669 20.032C181.237 19.552 181.021 18.952 181.021 18.232C181.021 17.944 181.053 17.552 181.117 17.056C181.181 16.544 181.253 16.008 181.333 15.448C181.413 14.888 181.485 14.368 181.549 13.888C181.613 13.392 181.645 13.024 181.645 12.784C181.645 12.56 181.621 12.368 181.573 12.208C181.541 12.032 181.461 11.944 181.333 11.944C181.141 11.944 180.877 12.16 180.541 12.592C180.205 13.008 179.829 13.544 179.413 14.2C179.013 14.856 178.597 15.552 178.165 16.288C177.749 17.024 177.357 17.72 176.989 18.376C176.621 19.016 176.309 19.52 176.053 19.888C175.845 20.24 175.653 20.496 175.477 20.656C175.301 20.816 175.085 20.896 174.829 20.896C174.525 20.896 174.245 20.736 173.989 20.416C173.749 20.096 173.629 19.704 173.629 19.24C173.629 18.968 173.677 18.544 173.773 17.968C173.869 17.376 173.989 16.728 174.133 16.024C174.293 15.32 174.445 14.632 174.589 13.96C174.749 13.272 174.885 12.688 174.997 12.208C175.125 11.664 175.285 11.296 175.477 11.104C175.669 10.912 175.877 10.816 176.101 10.816C176.405 10.816 176.645 10.928 176.821 11.152C177.013 11.36 177.109 11.688 177.109 12.136C177.109 12.216 177.061 12.432 176.965 12.784C176.869 13.12 176.749 13.536 176.605 14.032C176.477 14.512 176.333 15.016 176.173 15.544C176.029 16.072 175.909 16.56 175.813 17.008C176.165 16.416 176.533 15.776 176.917 15.088C177.317 14.4 177.717 13.72 178.117 13.048C178.517 12.36 178.917 11.736 179.317 11.176C179.717 10.6 180.109 10.144 180.493 9.808C180.877 9.472 181.245 9.304 181.597 9.304C182.013 9.304 182.397 9.432 182.749 9.688C183.117 9.944 183.413 10.288 183.637 10.72C183.861 11.152 183.973 11.632 183.973 12.16C183.973 12.528 183.909 13.048 183.781 13.72C183.653 14.376 183.517 15.088 183.373 15.856C183.245 16.624 183.165 17.352 183.133 18.04C183.133 18.2 183.181 18.28 183.277 18.28C183.357 18.28 183.453 18.224 183.565 18.112C184.029 17.6 184.541 16.984 185.101 16.264C185.661 15.528 186.229 14.752 186.805 13.936C187.397 13.12 187.981 12.32 188.557 11.536C189.133 10.736 189.669 10.016 190.165 9.376C190.677 8.72 191.125 8.2 191.509 7.816C191.909 7.432 192.221 7.24 192.445 7.24C192.925 7.24 193.293 7.376 193.549 7.648C193.805 7.92 193.933 8.376 193.933 9.016C193.933 9.528 193.893 10.192 193.813 11.008C193.749 11.824 193.661 12.712 193.549 13.672C193.453 14.632 193.341 15.6 193.213 16.576C193.101 17.536 192.989 18.432 192.877 19.264C192.765 20.08 192.677 20.752 192.613 21.28ZM211.807 22.864C211.343 22.864 211.015 22.712 210.823 22.408C210.631 22.104 210.535 21.584 210.535 20.848C210.535 20.256 210.607 19.52 210.751 18.64C210.911 17.76 211.103 16.792 211.327 15.736C211.551 14.664 211.783 13.56 212.023 12.424C211.047 13.752 209.967 14.816 208.783 15.616C207.615 16.4 206.319 16.912 204.895 17.152C204.559 17.936 204.175 18.648 203.743 19.288C203.311 19.928 202.839 20.44 202.327 20.824C201.815 21.208 201.279 21.4 200.719 21.4C200.031 21.4 199.447 21.12 198.967 20.56C198.503 20 198.271 19.184 198.271 18.112C198.271 17.376 198.367 16.72 198.559 16.144C198.751 15.552 198.967 15.128 199.207 14.872C198.983 14.28 198.871 13.6 198.871 12.832C198.871 11.888 199.087 11.056 199.519 10.336C199.951 9.6 200.527 9.032 201.247 8.632C201.967 8.216 202.743 8.008 203.575 8.008C204.247 8.008 204.847 8.32 205.375 8.944C205.903 9.568 206.167 10.464 206.167 11.632C206.167 12.72 205.975 13.928 205.591 15.256C206.471 14.92 207.351 14.408 208.231 13.72C209.127 13.032 209.991 12.208 210.823 11.248C211.655 10.288 212.407 9.224 213.079 8.056C213.255 7.768 213.503 7.624 213.823 7.624C214.111 7.624 214.335 7.712 214.495 7.888C214.671 8.048 214.759 8.272 214.759 8.56C214.759 8.64 214.711 8.912 214.615 9.376C214.535 9.84 214.423 10.432 214.279 11.152C214.151 11.872 214.007 12.664 213.847 13.528C213.687 14.392 213.527 15.264 213.367 16.144C213.223 17.024 213.103 17.84 213.007 18.592C213.375 17.888 213.791 17.12 214.255 16.288C214.719 15.456 215.191 14.64 215.671 13.84C216.167 13.024 216.639 12.28 217.087 11.608C217.551 10.936 217.959 10.4 218.311 10C218.679 9.584 218.967 9.376 219.175 9.376C219.559 9.376 219.895 9.504 220.182 9.76C220.47 10.016 220.615 10.28 220.615 10.552C220.615 10.92 220.575 11.48 220.495 12.232C220.415 12.968 220.319 13.8 220.207 14.728C220.095 15.656 219.983 16.584 219.871 17.512C219.759 18.44 219.663 19.28 219.583 20.032C219.503 20.784 219.463 21.344 219.463 21.712C219.463 21.952 219.359 22.168 219.151 22.36C218.943 22.552 218.711 22.648 218.455 22.648C218.279 22.648 218.127 22.592 217.999 22.48C217.887 22.384 217.799 22.16 217.735 21.808C217.671 21.456 217.639 20.912 217.639 20.176C217.639 19.456 217.663 18.672 217.711 17.824C217.759 16.96 217.823 16.104 217.903 15.256C217.999 14.392 218.103 13.616 218.215 12.928C217.847 13.536 217.423 14.264 216.943 15.112C216.479 15.96 215.991 16.832 215.479 17.728C214.967 18.624 214.471 19.464 213.991 20.248C213.511 21.032 213.079 21.664 212.695 22.144C212.311 22.624 212.015 22.864 211.807 22.864ZM203.479 15.64C203.671 15.032 203.823 14.384 203.935 13.696C204.063 12.992 204.127 12.288 204.127 11.584C204.127 11.168 204.047 10.832 203.887 10.576C203.727 10.32 203.511 10.192 203.239 10.192C202.823 10.192 202.415 10.312 202.015 10.552C201.615 10.776 201.279 11.096 201.007 11.512C200.751 11.928 200.623 12.424 200.623 13C200.623 13.72 200.895 14.336 201.439 14.848C201.999 15.344 202.679 15.608 203.479 15.64ZM202.831 17.296C201.743 17.248 200.863 16.928 200.191 16.336C200.159 16.544 200.127 16.744 200.095 16.936C200.063 17.112 200.047 17.288 200.047 17.464C200.047 17.96 200.127 18.352 200.287 18.64C200.463 18.912 200.727 19.048 201.079 19.048C201.367 19.048 201.663 18.888 201.967 18.568C202.271 18.248 202.559 17.824 202.831 17.296ZM233.966 9.928C234.398 8.888 234.806 7.816 235.19 6.712C235.59 5.608 235.95 4.48 236.27 3.328C236.366 3.008 236.51 2.752 236.702 2.56C236.91 2.352 237.15 2.248 237.422 2.248C237.614 2.248 237.774 2.32 237.902 2.464C238.046 2.608 238.118 2.8 238.118 3.04C238.118 3.344 237.998 3.872 237.758 4.624C237.534 5.376 237.246 6.328 236.894 7.48C236.558 8.632 236.214 9.96 235.862 11.464C235.526 12.952 235.238 14.6 234.998 16.408C234.774 18.216 234.662 20.144 234.662 22.192C234.662 22.64 234.566 23.008 234.374 23.296C234.182 23.6 233.95 23.752 233.678 23.752C233.518 23.752 233.366 23.712 233.222 23.632C233.078 23.552 232.95 23.36 232.838 23.056C232.742 22.768 232.662 22.312 232.598 21.688C232.534 21.048 232.502 20.184 232.502 19.096C232.502 18.264 232.55 17.36 232.646 16.384C231.91 17.712 231.11 18.872 230.246 19.864C229.398 20.84 228.574 21.592 227.774 22.12C226.99 22.648 226.318 22.912 225.758 22.912C225.07 22.912 224.51 22.68 224.078 22.216C223.662 21.768 223.454 21.096 223.454 20.2C223.454 19.416 223.638 18.608 224.006 17.776C224.374 16.944 224.862 16.128 225.47 15.328C226.078 14.512 226.75 13.744 227.486 13.024C228.222 12.304 228.958 11.672 229.694 11.128C230.446 10.568 231.142 10.136 231.782 9.832C232.422 9.512 232.942 9.352 233.342 9.352C233.502 9.352 233.646 9.408 233.774 9.52C233.902 9.632 233.966 9.768 233.966 9.928ZM233.654 10.672C233.542 10.784 233.406 10.896 233.246 11.008C233.086 11.12 232.91 11.24 232.718 11.368C232.014 11.864 231.238 12.44 230.39 13.096C229.558 13.736 228.758 14.44 227.99 15.208C227.238 15.96 226.622 16.752 226.142 17.584C225.662 18.416 225.422 19.272 225.422 20.152C225.422 20.536 225.614 20.728 225.998 20.728C226.526 20.728 227.102 20.48 227.726 19.984C228.366 19.472 229.022 18.768 229.694 17.872C230.366 16.96 231.038 15.896 231.71 14.68C232.382 13.448 233.03 12.112 233.654 10.672ZM248.819 11.656C248.819 12.168 248.659 12.672 248.339 13.168C248.019 13.648 247.595 14.112 247.067 14.56C246.539 14.992 245.955 15.4 245.315 15.784C244.675 16.168 244.035 16.504 243.395 16.792C242.755 17.08 242.171 17.312 241.643 17.488C241.515 18.112 241.451 18.664 241.451 19.144C241.451 19.448 241.523 19.664 241.667 19.792C241.811 19.92 242.035 19.984 242.339 19.984C243.011 19.984 243.723 19.864 244.475 19.624C245.227 19.384 245.995 19.072 246.779 18.688C247.563 18.304 248.315 17.896 249.035 17.464C249.755 17.032 250.411 16.624 251.003 16.24C251.611 15.856 252.115 15.544 252.515 15.304C252.915 15.064 253.179 14.944 253.307 14.944C253.499 14.944 253.643 15.008 253.739 15.136C253.851 15.248 253.907 15.384 253.907 15.544C253.907 15.672 253.707 15.92 253.307 16.288C252.923 16.656 252.403 17.088 251.747 17.584C251.091 18.064 250.355 18.56 249.539 19.072C248.723 19.584 247.875 20.064 246.995 20.512C246.131 20.96 245.291 21.32 244.475 21.592C243.675 21.864 242.955 22 242.315 22C241.483 22 240.835 21.688 240.371 21.064C239.907 20.44 239.675 19.472 239.675 18.16C239.675 17.28 239.787 16.392 240.011 15.496C240.251 14.6 240.571 13.744 240.971 12.928C241.387 12.096 241.843 11.36 242.339 10.72C242.851 10.064 243.387 9.552 243.947 9.184C244.507 8.8 245.051 8.608 245.579 8.608C246.587 8.608 247.379 8.888 247.955 9.448C248.531 10.008 248.819 10.744 248.819 11.656ZM242.147 15.64C242.643 15.336 243.155 15.016 243.683 14.68C244.211 14.344 244.699 14 245.147 13.648C245.595 13.296 245.955 12.928 246.227 12.544C246.515 12.144 246.659 11.736 246.659 11.32C246.659 10.728 246.339 10.432 245.699 10.432C245.299 10.432 244.875 10.688 244.427 11.2C243.995 11.696 243.579 12.344 243.179 13.144C242.779 13.944 242.435 14.776 242.147 15.64Z" fill="black"/>
</svg>
